<svg id="Calque_1" data-name="Calque 1" xmlns="http://www.w3.org/2000/svg" viewBox="0 0 500 183"><defs><style>.cls-1{fill:none;}.cls-2{fill:#bf0000;}</style></defs><title>Rakuten_Logo2018</title><rect class="cls-1" x="-0.11" y="-0.05" width="500.11" height="182.98" rx="8.51" ry="8.51"/><polygon class="cls-2" points="376.52 140.38 125.44 140.38 145.44 160.38 376.52 140.38"/><path class="cls-2" d="M148.7,59.48v3c-4.66-3-8.84-4.7-14.56-4.7-17.59,0-31,16-31,35.74s13.37,35.74,31,35.74c5.72,0,9.9-1.73,14.56-4.7v3h15.47V59.48Zm-14.56,53.4c-8.68,0-15-8.54-15-19.33s6.35-19.32,15-19.32,14.8,8.54,14.8,19.32S142.82,112.88,134.14,112.88Z"/><path class="cls-2" d="M272.57,59.48v40c0,7.51-5.16,13.85-12.67,13.85S247.23,107,247.23,99.5v-40H231.77v40c0,16.43,11.23,29.79,27.65,29.79a23.73,23.73,0,0,0,13.15-4.21v2.53H288V59.48Z"/><path class="cls-2" d="M416.65,127.61v-40c0-7.51,5.15-13.85,12.67-13.85S442,80.08,442,87.59v40h15.47v-40c0-16.42-11.24-29.78-27.66-29.78A23.72,23.72,0,0,0,416.65,62V59.48H401.18v68.13Z"/><path class="cls-2" d="M58.62,127.61V101.22H70.05l19.81,26.39H110.1L86.17,95.76a29.34,29.34,0,0,0-17-53.26H42.44v85.11Zm0-68.95H69.17a13.19,13.19,0,1,1,0,26.38H58.62Z"/><path class="cls-2" d="M329.71,111.49a9.24,9.24,0,0,1-5.18,1.68c-2.52,0-7.28-1.93-7.28-8.36V75.65h13.22V59.48H317.25v-17H301.78v17H293.6V75.65h8.18V105c0,15.22,11.46,24.3,23,24.3a31.87,31.87,0,0,0,15.13-4.28Z"/><polygon class="cls-2" points="202.61 91.42 229.13 59.48 207.46 59.48 188.91 83.22 188.91 36.88 172.98 36.88 172.98 127.61 188.91 127.61 188.91 99.63 211.71 127.61 233.38 127.61 202.61 91.42"/><path class="cls-2" d="M365.42,57.75c-17.89,0-30.73,15.73-30.73,35.8,0,21.1,16.11,35.8,32.27,35.8,8.15,0,18.6-2.8,27.38-15.26l-13.66-7.88c-10.56,15.57-28.16,7.67-30.19-7.9H395C398.84,73.85,383,57.75,365.42,57.75Zm13.5,27H351.07C354.32,68.8,375.91,67.88,378.92,84.75Z"/><rect class="cls-1" x="42.44" y="42.5" width="415" height="97.87"/></svg>